<svg width="197" height="204" viewBox="0 0 197 204" fill="none" xmlns="http://www.w3.org/2000/svg">
<g clip-path="url(#clip0_3_52)">
<path fill-rule="evenodd" clip-rule="evenodd" d="M124.948 204L124.949 144.923C124.949 139.759 125.454 134.714 126.416 129.837C125.397 115.934 122.151 102.658 117.042 90.3701C109.545 103.266 105.152 118.23 104.896 134.212L104.885 135.692V204H92.1146L92.1137 135.58L92.1041 134.212C91.8481 118.23 87.4551 103.266 79.9617 90.3697C74.8496 102.657 71.6035 115.931 70.5778 129.832C71.4493 134.224 71.9455 138.75 72.0361 143.377L72.0512 144.923L72.0522 204H58.3703L58.3677 134.04C53.5159 105.518 29.9229 83.4842 0.882764 81.3933L0 81.336V68.3951C26.1725 69.6519 48.8645 84.3609 61.4761 105.842C63.8322 96.1732 67.1893 86.9023 71.4267 78.1472C55.2001 58.5872 30.8589 46.1538 3.64852 46.1538C2.83379 46.1538 2.02163 46.165 1.21218 46.1871L0 46.2286V33.2961C1.21091 33.2527 2.42719 33.2308 3.64852 33.2308C33.0318 33.2308 59.4916 45.9005 77.9853 66.1367C81.5342 60.3319 85.4948 54.8079 89.8242 49.6089C67.2443 26.9327 36.1509 12.9231 1.82445 12.9231L0.911613 12.9264L0 12.9363V0.0147684L1.82445 0C39.4981 0 73.6385 15.3105 98.503 40.119C123.363 15.3097 157.503 0 195.176 0L197 0.0147684V12.9363C196.393 12.9275 195.785 12.9231 195.176 12.9231C160.85 12.9231 129.757 26.9321 107.174 49.6094C111.505 54.8079 115.466 60.3319 119.017 66.1394C137.508 45.9005 163.968 33.2308 193.351 33.2308C194.573 33.2308 195.789 33.2527 197 33.2961V46.2286C195.79 46.1789 194.574 46.1538 193.351 46.1538C166.14 46.1538 141.798 58.588 125.57 78.1487C129.811 86.9042 133.168 96.1751 135.528 105.844C148.134 84.3617 170.827 69.6519 197 68.3951V81.336C167.556 83.0397 143.533 105.23 138.632 134.04L138.63 204H124.948ZM98.5023 58.2857L97.4436 59.5861C93.7883 64.1506 90.4792 69.0008 87.5556 74.0977C92.0355 80.4295 95.7308 87.3482 98.5036 94.7143C101.272 87.3489 104.967 80.4307 109.444 74.0984C106.512 68.9802 103.187 64.11 99.5129 59.5281L98.5023 58.2857Z" fill="white" fill-opacity="0.17"/>
</g>
<defs>
<clipPath id="clip0_3_52">
<rect width="197" height="204" fill="white"/>
</clipPath>
</defs>
</svg>
